<svg width="480" height="320" viewBox="0 0 480 320" fill="none" xmlns="http://www.w3.org/2000/svg">
<g clip-path="url(#clip0_318_895)">
<path d="M236.44 0H238.44C238.527 0.333333 238.8 0.34 239.107 0.333333H241.873C243.007 0.226667 244.1 0.793333 245.247 0.54C248.867 0.993333 252.487 1.38667 256.093 1.96C262.406 2.95747 268.642 4.38524 274.76 6.23333C284.145 9.06649 293.221 12.8343 301.853 17.48C328.482 31.7776 349.926 54.1072 363.133 81.2933C363.34 81.72 363.74 82.1267 363.473 82.6733C363.053 82.6733 362.973 82.2867 362.807 82.0067C361.553 80.1667 360.327 78.3067 359.06 76.48C354.322 69.7067 348.982 63.3744 343.107 57.56C339.913 54.3533 336.533 51.3267 333.027 48.44C325.473 42.1917 317.296 36.7364 308.627 32.16C297.266 26.1615 285.16 21.6938 272.627 18.8733C264.413 17.0159 256.056 15.8606 247.647 15.42C241.958 15.1156 236.256 15.1646 230.573 15.5667C226.307 15.8733 222.062 16.3178 217.84 16.9C211.301 17.8554 204.839 19.2836 198.507 21.1733C187.694 24.354 177.287 28.7768 167.493 34.3533C152.277 43.0152 138.762 54.3709 127.607 67.8667C122.381 74.1787 117.698 80.9204 113.607 88.02C112.807 89.4067 112.027 90.8067 111.24 92.1867C106.622 92.6031 102.04 93.3449 97.5266 94.4067C78.3738 98.7906 60.6372 107.938 45.96 121C39.1106 127.097 33.0141 133.99 27.8 141.533C27.1333 142.467 26.7533 143.6 25.7466 144.28C25.5466 143.613 25.92 143.1 26.18 142.56C27.4733 139.893 28.8466 137.227 30.3333 134.593C34.7758 126.794 40.1264 119.548 46.2733 113.007C61.6335 96.6538 81.3856 85.0798 103.16 79.6733C108.38 78.3699 113.687 77.4409 119.04 76.8933C119.82 75.5 120.56 74.14 121.333 72.8C130.819 56.2993 143.459 41.8265 158.533 30.2067C172.386 19.6154 188.005 11.5621 204.667 6.42C214.483 3.37348 224.607 1.426 234.853 0.613333C235.44 0.566667 236.073 0.613333 236.44 0Z" fill="#0000FF"/>
<path d="M363.46 82.6667C363.727 82.12 363.327 81.7133 363.12 81.2867C349.889 54.1168 328.452 31.7935 301.84 17.4733C293.208 12.823 284.132 9.05076 274.747 6.21333C268.629 4.36524 262.392 2.93747 256.08 1.94C252.473 1.36667 248.853 0.973333 245.233 0.52V0H252C252.05 0.0980297 252.128 0.178932 252.224 0.23237C252.32 0.285808 252.43 0.309354 252.54 0.3H256.767C262.322 0.624833 267.853 1.27259 273.333 2.24C280.896 3.53681 288.34 5.44529 295.593 7.94667C318.813 15.8615 339.622 29.5856 356.04 47.8133C368.247 61.2775 377.76 76.9557 384.067 94C386.568 100.785 388.536 107.755 389.953 114.847C391.847 115.4 393.767 115.387 395.647 115.607C400.04 116.138 404.391 116.978 408.667 118.12C420.563 121.235 431.753 126.598 441.633 133.92C452.277 141.773 461.16 151.764 467.713 163.253C472.827 172.147 476.406 181.838 478.3 191.92C478.933 195.293 479.34 198.687 479.673 202.1C480.042 206.47 480.098 210.862 479.84 215.24C479.559 220.21 478.861 225.147 477.753 230C475.743 238.979 472.428 247.616 467.913 255.633C467.644 256.288 467.234 256.875 466.713 257.353C466.65 256.803 466.759 256.246 467.027 255.76C469.838 247.829 471.528 239.545 472.047 231.147C472.447 225.22 472.279 219.268 471.547 213.373C470.967 208.877 470.094 204.423 468.933 200.04C467.402 194.374 465.319 188.872 462.713 183.613C461.6 181.34 460.553 179.013 458.92 177.027C458.955 176.882 458.938 176.729 458.871 176.596C458.804 176.463 458.691 176.358 458.553 176.3C458.113 175.453 457.68 174.607 457.22 173.767C457.22 173.453 457.273 173.1 456.86 173.007C456.913 172.503 456.772 171.998 456.467 171.593C455.327 169.247 454.24 166.887 452.973 164.6C445.512 151.029 434.845 139.489 421.9 130.987C413.679 125.536 404.67 121.381 395.187 118.667C389.764 117.053 384.194 115.979 378.56 115.46L378.307 115.287C378.311 114.959 378.247 114.635 378.12 114.333C375.514 106.424 372.238 98.7517 368.327 91.4C368.041 90.7521 367.641 90.1606 367.147 89.6533C367.187 89.3467 367.147 89.0733 366.793 88.9867C366.816 88.8444 366.792 88.6986 366.724 88.5712C366.657 88.4438 366.55 88.3416 366.42 88.28L364.42 84.4533C364.42 84.1267 364.487 83.7867 364.047 83.6333C364.047 83.4133 364.047 83.22 363.733 83.26C363.827 82.9267 363.873 82.5933 363.387 82.5933L363.46 82.6667Z" fill="#00FFFF"/>
<path d="M236.44 0C236.073 0.613333 235.44 0.566667 234.853 0.613333C224.607 1.426 214.483 3.37348 204.667 6.42C188.002 11.5743 172.383 19.6413 158.533 30.2467C143.459 41.8665 130.819 56.3393 121.333 72.84C120.56 74.1733 119.82 75.5067 119.04 76.9333C113.687 77.4809 108.38 78.4099 103.16 79.7133C81.3855 85.1198 61.6334 96.6938 46.2732 113.047C40.1267 119.586 34.7761 126.829 30.3332 134.627C28.8465 137.233 27.4732 139.893 26.1799 142.593C25.9199 143.133 25.5132 143.653 25.7465 144.313C25.4265 144.26 25.3999 144.453 25.4199 144.687C24.9266 144.793 25.0599 145.18 25.0466 145.5C24.1665 146.833 23.7132 148.38 22.7332 149.66C22.6199 149.8 22.6932 150.087 22.6799 150.327C22.0132 150.433 21.9066 151.053 21.6466 151.52C17.5006 159.035 14.2346 167.003 11.9132 175.267C9.64871 183.187 8.29551 191.34 7.87988 199.567C7.46696 207.365 7.86465 215.184 9.06655 222.9C10.0889 229.279 11.6045 235.569 13.5999 241.713C14.1599 243.447 14.9866 245.093 15.3332 246.893C14.9687 246.636 14.6881 246.276 14.5266 245.86C9.18707 236.388 5.25261 226.19 2.84655 215.587C1.84584 211.106 1.11784 206.569 0.66655 202C0.0357287 196.379 -0.140399 190.716 0.139883 185.067C0.798299 171.511 3.89917 158.187 9.29322 145.733C13.8034 135.37 19.8244 125.732 27.1599 117.133C42.8435 98.7668 63.8517 85.7337 87.2732 79.84C91.7742 78.6538 96.3584 77.8092 100.987 77.3133C101.82 77.2333 102.647 77.06 103.567 76.9133C105.567 73.38 107.567 69.8 109.793 66.36C114.213 59.5851 119.169 53.1756 124.613 47.1933C141.738 28.5207 163.443 14.645 187.58 6.94C192.807 5.26879 198.125 3.89328 203.507 2.82C207.521 1.99416 211.575 1.37777 215.653 0.973333C218.173 0.746667 220.673 0.353333 223.213 0.34H227.267C227.56 0.34 227.827 0.34 227.973 0.02L236.44 0Z" fill="#FF00FF"/>
<path d="M245.247 0V0.52C244.1 0.773333 243.007 0.206667 241.873 0.313333C241.863 0.209126 241.863 0.104207 241.873 0L245.247 0Z" fill="#00FFFF"/>
<path d="M228 0C227.854 0.306667 227.587 0.32 227.294 0.32H223.24C223.262 0.270559 223.273 0.217234 223.273 0.163333C223.273 0.109433 223.262 0.0561072 223.24 0.00666667L228 0Z" fill="#FF00FF"/>
<path d="M256.787 0.293333H252.56C252.448 0.30748 252.334 0.286953 252.234 0.234512C252.134 0.182071 252.052 0.100232 252 0L256.74 0C256.735 0.0999585 256.751 0.199862 256.787 0.293333Z" fill="#00FFFF"/>
<path d="M241.86 -1.95317e-05C241.85 0.104187 241.85 0.209107 241.86 0.313314H239.093C238.82 0.313314 238.547 0.313314 238.427 -0.0200195L241.86 -1.95317e-05Z" fill="#0000FF"/>
<path d="M464.387 261.667C464.476 262.275 464.325 262.894 463.967 263.393C460.381 271.301 455.734 278.682 450.153 285.333C434.71 303.726 412.985 315.726 389.193 319.007C384.111 319.69 378.988 320.018 373.86 319.987C290.456 319.987 207.045 319.987 123.627 319.987C119.236 319.989 114.849 319.739 110.487 319.24C103.523 318.44 96.6443 317.019 89.9334 314.993C76.7047 311.024 64.2886 304.73 53.2668 296.407C46.9165 291.62 41.0847 286.181 35.8668 280.18C29.6803 273.083 24.371 265.267 20.0535 256.9C19.1201 255.1 18.0201 253.34 17.6201 251.3C18.0868 251.38 18.1601 251.8 18.3668 252.113C24.6876 261.739 32.3978 270.377 41.2468 277.747C49.2267 284.357 58.0398 289.891 67.4601 294.207C80.5383 300.175 94.6042 303.682 108.953 304.553C113.96 304.873 118.987 304.733 124.007 304.62C126.433 304.62 128.86 304.687 131.28 304.687H368.153C370.293 304.687 372.44 304.647 374.587 304.62C381.393 304.66 388.207 304.9 395 304.033C400.341 303.371 405.621 302.292 410.793 300.807C430.659 295.006 448.147 283 460.7 266.547C461.94 264.933 462.973 263.16 464.387 261.667Z" fill="#FFFF00"/>
<path d="M124.034 304.667C119.014 304.78 113.987 304.92 108.98 304.6C94.631 303.729 80.5651 300.222 67.4869 294.253C58.0665 289.937 49.2535 284.403 41.2736 277.793C32.4245 270.424 24.7144 261.786 18.3936 252.16C18.1869 251.847 18.1136 251.427 17.6469 251.347C17.6848 251.193 17.6668 251.03 17.5959 250.889C17.5251 250.747 17.4061 250.635 17.2602 250.573L15.3602 246.873C15.0136 245.073 14.1869 243.427 13.6269 241.693C11.6315 235.549 10.1159 229.259 9.09355 222.88C7.89165 215.164 7.49396 207.345 7.90688 199.547C8.32251 191.32 9.67571 183.167 11.9402 175.247C14.2616 166.983 17.5276 159.015 21.6735 151.5C21.9335 151.033 22.0136 150.413 22.7069 150.307C22.7202 150.582 22.6955 150.858 22.6336 151.127C20.3822 157.068 18.6665 163.199 17.5069 169.447C16.5457 174.272 15.9374 179.16 15.6869 184.073C15.2944 191.271 15.5801 198.489 16.5402 205.633C17.3426 211.431 18.5772 217.16 20.2336 222.773C22.8711 231.592 26.5787 240.055 31.2736 247.973C46.6523 273.781 71.4223 292.636 100.394 300.587C107.744 302.644 115.289 303.925 122.907 304.407C123.334 304.393 123.727 304.273 124.034 304.667Z" fill="#FF0000"/>
<path d="M464.387 261.667C462.974 263.16 461.94 264.933 460.7 266.56C448.148 283.014 430.659 295.019 410.794 300.82C405.621 302.305 400.341 303.384 395 304.047C388.207 304.913 381.394 304.673 374.587 304.633C374.834 304.32 375.194 304.393 375.52 304.387C378.996 304.186 382.454 303.741 385.867 303.053C401.8 300.113 416.738 293.212 429.304 282.984C441.87 272.756 451.66 259.531 457.774 244.527C461.455 235.499 463.652 225.936 464.28 216.207C465.221 203.567 463.537 190.87 459.334 178.913C459.114 178.307 458.727 177.707 458.9 177C460.534 179 461.567 181.313 462.694 183.587C465.305 188.841 467.395 194.338 468.934 200C470.094 204.383 470.967 208.837 471.547 213.333C472.279 219.228 472.447 225.18 472.047 231.107C471.528 239.505 469.839 247.789 467.027 255.72C466.759 256.206 466.65 256.763 466.714 257.313C466.334 257.313 466.38 257.593 466.394 257.84L464.66 261.173C464.563 261.213 464.481 261.283 464.427 261.373C464.373 261.464 464.35 261.569 464.36 261.673L464.387 261.667Z" fill="#00FF00"/>
<path d="M17.2798 250.567C17.4242 250.628 17.5422 250.739 17.613 250.879C17.6837 251.02 17.7027 251.18 17.6665 251.333C17.1931 251.247 17.3331 250.86 17.2798 250.567Z" fill="#FFFF00"/>
<path d="M466.407 257.833C466.407 257.587 466.347 257.32 466.727 257.307C466.747 257.418 466.725 257.533 466.666 257.63C466.607 257.727 466.515 257.799 466.407 257.833Z" fill="#00FFFF"/>
<path d="M464.374 261.68C464.363 261.575 464.386 261.47 464.44 261.38C464.495 261.29 464.576 261.22 464.674 261.18C464.707 261.427 464.76 261.68 464.374 261.68Z" fill="#FFFF00"/>
<path d="M458.92 177C458.747 177.707 459.133 178.333 459.353 178.913C463.549 190.87 465.226 203.564 464.28 216.2C463.652 225.929 461.455 235.493 457.773 244.52C451.645 259.515 441.85 272.731 429.286 282.957C416.723 293.182 401.793 300.09 385.867 303.047C382.453 303.734 378.996 304.18 375.52 304.38C375.193 304.38 374.853 304.313 374.587 304.627C372.44 304.627 370.293 304.693 368.153 304.693H131.333C128.913 304.693 126.487 304.653 124.06 304.627C123.753 304.267 123.333 304.387 122.953 304.367C115.336 303.885 107.79 302.604 100.44 300.547C85.4919 296.45 71.5151 289.403 59.3333 279.82C48.1152 271.01 38.6224 260.201 31.3333 247.94C26.6384 240.022 22.9308 231.559 20.2933 222.74C18.6369 217.127 17.4024 211.397 16.5999 205.6C15.6398 198.456 15.3541 191.238 15.7466 184.04C15.9972 179.127 16.6054 174.238 17.5666 169.413C18.7175 163.167 20.4243 157.036 22.6666 151.093C22.7285 150.825 22.7532 150.549 22.7399 150.273C22.7399 150.06 22.6799 149.773 22.7933 149.607C23.7733 148.327 24.2266 146.773 25.1066 145.447C25.2432 145.373 25.3522 145.258 25.4172 145.117C25.4821 144.976 25.4995 144.818 25.4666 144.667C25.7599 144.667 25.7999 144.513 25.7933 144.293C26.7999 143.627 27.2066 142.48 27.8466 141.547C39.9615 124.053 56.6548 110.229 76.0999 101.587C83.0082 98.5066 90.1999 96.1064 97.5733 94.4201C102.086 93.3583 106.669 92.6164 111.287 92.2001C112.073 90.8201 112.853 89.4201 113.653 88.0334C117.745 80.9338 122.428 74.1921 127.653 67.8801C138.808 54.3842 152.323 43.0285 167.54 34.3667C177.334 28.7902 187.741 24.3674 198.553 21.1867C204.886 19.297 211.347 17.8688 217.887 16.9134C222.113 16.3134 226.358 15.8689 230.62 15.5801C236.303 15.178 242.005 15.129 247.693 15.4334C256.103 15.874 264.46 17.0293 272.673 18.8867C285.207 21.7072 297.312 26.1749 308.673 32.1734C317.343 36.7498 325.519 42.2051 333.073 48.4534C336.58 51.3401 339.96 54.3667 343.153 57.5734C349.029 63.3877 354.368 69.72 359.107 76.4934C360.373 78.3201 361.6 80.1801 362.853 82.0201C363.033 82.2734 363.113 82.6467 363.52 82.6867C363.433 83.0134 363.52 83.2667 363.867 83.3534C363.867 83.5801 363.867 83.7534 364.18 83.7267C364.136 83.8855 364.149 84.0548 364.217 84.2048C364.285 84.3548 364.405 84.4759 364.553 84.5467L366.553 88.3734C366.553 88.66 366.553 88.9734 366.927 89.08C366.927 89.3801 366.847 89.7001 367.28 89.7467C367.23 90.3024 367.356 90.8597 367.64 91.34C368.107 92.5734 368.573 93.8134 369.027 95.0534C371.377 101.552 373.24 108.218 374.6 114.993C375.852 115.321 377.148 115.451 378.44 115.38L378.693 115.553C378.73 115.883 378.788 116.211 378.867 116.533C379.793 119.54 380.66 122.567 381.333 125.64C381.68 127.193 382.06 128.74 382.42 130.307C384.573 130.567 386.627 130.84 388.687 131.067C393.426 131.609 398.11 132.559 402.687 133.907C417.634 138.123 431.351 145.864 442.687 156.48C447.642 161.16 452.074 166.364 455.907 172C456.18 172.393 456.353 172.9 456.9 173.04C456.853 173.189 456.865 173.35 456.931 173.49C456.998 173.631 457.115 173.742 457.26 173.8C457.7 174.64 458.133 175.487 458.593 176.333C458.64 176.607 458.52 177 458.96 177.06L458.92 177ZM50.1799 230C50.1366 230.157 50.152 230.324 50.2232 230.47C50.2944 230.616 50.4165 230.731 50.5666 230.793L51.8533 233.193C51.8533 233.44 51.8133 233.7 52.1933 233.707C52.1008 234.257 52.2199 234.821 52.5266 235.287C53.7696 238.196 55.1992 241.022 56.8066 243.747C61.5215 251.818 67.6793 258.954 74.9733 264.8C80.5559 269.281 86.7352 272.963 93.3333 275.74C103.078 279.865 113.558 281.974 124.14 281.94C206.082 281.967 288.022 281.967 369.96 281.94C373.227 281.94 376.487 281.993 379.76 281.72C384.013 281.402 388.22 280.627 392.307 279.407C402.339 276.406 411.372 270.746 418.447 263.027C422.838 258.282 426.389 252.824 428.947 246.887C429.573 245.714 430.012 244.449 430.247 243.14C430.533 242.58 430.827 242.02 431.12 241.46C431.439 241.236 431.694 240.932 431.86 240.58C433.368 238.249 434.726 235.824 435.927 233.32C439.077 226.648 440.889 219.423 441.26 212.053C441.571 206.511 440.981 200.954 439.513 195.6C436.296 183.307 429.012 172.465 418.847 164.84C408.947 157.28 397.647 153.447 385.14 152.967C383.14 152.887 381.1 152.7 379.073 152.573C375.147 152.333 371.227 151.967 367.307 151.68C365 151.513 362.693 151.427 360.393 151.26C359.513 151.2 358.647 151.013 357.727 150.88C357.68 150.507 357.667 150.213 357.613 149.967C355.613 140.173 353.613 130.373 351.567 120.593C349.363 110.164 345.484 100.161 340.08 90.9734C334.68 81.634 327.858 73.1929 319.86 65.9534C316.711 63.099 313.402 60.428 309.947 57.9534C301.503 51.918 292.217 47.1581 282.387 43.8267C274.498 41.1115 266.309 39.361 258 38.6134C252.5 38.1467 247.007 37.7134 241.493 38.3667H238.5C237.213 38.2734 235.94 38.0667 234.64 38.0467C230.411 38.019 226.183 38.2059 221.973 38.6067C217.332 39 212.725 39.7241 208.187 40.7734C186.668 45.6487 167.219 57.1452 152.573 73.6467C147.696 79.0762 143.431 85.0252 139.853 91.3867C137.353 95.9001 134.92 100.447 132.467 104.993C131.1 107.527 129.747 110.073 128.413 112.573C128.167 112.64 128.013 112.707 127.847 112.733C125.793 113.067 123.72 113.187 121.653 113.4C116.733 113.887 111.827 114.487 106.913 114.96C103.341 115.311 99.8014 115.94 96.3266 116.84C80.2348 120.871 65.8997 130.047 55.5014 142.972C45.103 155.897 39.2105 171.865 38.7199 188.447C38.6266 190.72 38.7999 192.987 38.9199 195.253C39.1582 199.618 39.8055 203.95 40.8533 208.193C42.597 215.47 45.4385 222.439 49.2799 228.86C49.5266 229.26 49.5999 229.833 50.1999 229.967L50.1799 230Z" fill="black"/>
<path d="M456.9 173.013C456.354 172.873 456.18 172.347 455.907 171.973C452.027 166.298 447.538 161.065 442.52 156.367C431.185 145.751 417.467 138.01 402.52 133.793C397.944 132.446 393.26 131.496 388.52 130.953C386.46 130.727 384.407 130.453 382.254 130.193C381.894 128.653 381.514 127.107 381.167 125.527C380.5 122.453 379.627 119.427 378.7 116.42C378.622 116.097 378.564 115.77 378.527 115.44C384.173 115.963 389.754 117.044 395.187 118.667C404.684 121.377 413.707 125.532 421.94 130.987C434.885 139.489 445.553 151.029 453.014 164.6C454.28 166.887 455.367 169.267 456.507 171.593C456.814 171.999 456.955 172.507 456.9 173.013Z" fill="#0000FF"/>
<path d="M378.307 115.293C377.015 115.365 375.719 115.234 374.467 114.907C373.107 108.131 371.244 101.466 368.894 94.9667C368.44 93.7267 367.973 92.4867 367.507 91.2534C367.223 90.773 367.097 90.2157 367.147 89.66C367.641 90.1673 368.041 90.7588 368.327 91.4067C372.238 98.7584 375.515 106.431 378.12 114.34C378.247 114.642 378.311 114.966 378.307 115.293Z" fill="#00FF00"/>
<path d="M367.16 89.68C366.726 89.6066 366.786 89.2866 366.806 89.0133C367.167 89.1 367.2 89.3733 367.16 89.68Z" fill="#00FF00"/>
<path d="M366.826 89.0133C366.446 88.9066 366.48 88.5933 366.453 88.3066C366.583 88.3683 366.69 88.4704 366.757 88.5978C366.825 88.7252 366.849 88.871 366.826 89.0133Z" fill="#00FF00"/>
<path d="M364.466 84.48C364.318 84.4092 364.199 84.2881 364.13 84.1381C364.062 83.9881 364.049 83.8188 364.093 83.66C364.533 83.7934 364.48 84.1534 364.466 84.48Z" fill="#0000FF"/>
<path d="M457.253 173.753C457.109 173.695 456.992 173.584 456.925 173.444C456.858 173.303 456.847 173.142 456.893 172.993C457.334 173.107 457.26 173.44 457.253 173.753Z" fill="#0000FF"/>
<path d="M458.933 177.013C458.493 176.927 458.613 176.56 458.566 176.287C458.704 176.344 458.817 176.449 458.884 176.582C458.951 176.716 458.969 176.868 458.933 177.013Z" fill="#00FF00"/>
<path d="M363.8 83.3333C363.433 83.2333 363.367 82.98 363.453 82.6666C363.94 82.6666 363.893 82.9933 363.8 83.3333Z" fill="#0000FF"/>
<path d="M364.107 83.68C363.827 83.68 363.773 83.5333 363.793 83.3067C364.1 83.2667 364.12 83.46 364.107 83.68Z" fill="#0000FF"/>
<path d="M25.4667 144.667C25.5066 144.824 25.4913 144.991 25.4234 145.139C25.3555 145.287 25.239 145.407 25.0934 145.48C25.1067 145.153 24.9734 144.767 25.4667 144.667Z" fill="#0000FF"/>
<path d="M25.7731 144.307C25.7731 144.527 25.7731 144.707 25.4464 144.68C25.4264 144.447 25.4531 144.253 25.7731 144.307Z" fill="#0000FF"/>
<path d="M430.273 243.147C430.039 244.456 429.6 245.72 428.973 246.893C426.416 252.831 422.865 258.289 418.473 263.033C411.398 270.753 402.366 276.413 392.333 279.413C388.246 280.633 384.04 281.409 379.787 281.727C376.513 282 373.253 281.947 369.987 281.947C288.049 281.947 206.109 281.947 124.167 281.947C113.585 281.981 103.105 279.872 93.36 275.747C86.7457 272.961 80.5526 269.265 74.96 264.767C67.6661 258.921 61.5083 251.785 56.7933 243.713C55.1859 240.988 53.7563 238.163 52.5133 235.253C52.2066 234.788 52.0875 234.223 52.18 233.673C52.5 233.707 52.6267 233.98 52.78 234.2C57.1346 240.375 62.4038 245.851 68.4067 250.44C80.888 260.133 96.0438 265.762 111.827 266.567C116.767 266.86 121.747 266.613 126.707 266.613C128.287 266.613 129.86 266.66 131.44 266.66H367.533C369 266.66 370.467 266.66 371.933 266.613C377.553 266.613 383.173 266.9 388.793 266.38C391.967 266.07 395.113 265.513 398.2 264.713C409.133 261.835 418.987 255.827 426.553 247.427L430.273 243.147Z" fill="#0000FF"/>
<path d="M241.493 38.3666C247.006 37.7 252.5 38.1466 258 38.6133C266.33 39.3561 274.538 41.1067 282.447 43.8266C292.274 47.1586 301.558 51.9185 310 57.9533C313.455 60.4279 316.765 63.099 319.913 65.9533C327.911 73.1928 334.733 81.634 340.133 90.9733C345.537 100.161 349.416 110.164 351.62 120.593C353.673 130.373 355.62 140.173 357.667 149.967C357.72 150.233 357.733 150.507 357.78 150.88C358.673 151.013 359.54 151.2 360.447 151.26C362.747 151.427 365.053 151.513 367.36 151.68C371.28 151.967 375.2 152.347 379.127 152.573C381.127 152.7 383.173 152.887 385.193 152.967C397.7 153.447 409 157.28 418.9 164.84C429.065 172.465 436.35 183.307 439.567 195.6C441.035 200.954 441.624 206.51 441.313 212.053C440.942 219.423 439.13 226.648 435.98 233.32C434.779 235.824 433.421 238.248 431.913 240.58C431.747 240.932 431.492 241.236 431.173 241.46C431.165 241.237 431.18 241.013 431.22 240.793C432.25 237.192 432.957 233.507 433.333 229.78C433.815 224.935 433.626 220.047 432.773 215.253C431.714 209.089 429.584 203.157 426.48 197.727C425.667 196.307 425 194.787 423.747 193.653C423.792 193.511 423.78 193.357 423.714 193.222C423.649 193.088 423.534 192.985 423.393 192.933L422.727 191.687C422.727 191.393 422.8 191.053 422.367 190.967C422.432 190.411 422.303 189.85 422 189.38C417.617 178.192 409.806 168.678 399.687 162.2C391.171 156.704 381.367 153.531 371.247 152.993C367.147 152.727 363.04 152.593 358.96 152.187C356.893 151.98 354.813 152.027 352.747 151.72C350.927 151.447 349.06 151.487 347.213 151.393C347.147 151.333 347.073 151.281 346.993 151.24C346.06 145.633 344.913 140.06 343.66 134.52C341.637 125.661 338.409 117.122 334.067 109.14C333.497 107.888 332.781 106.709 331.933 105.627C331.947 105.491 331.92 105.355 331.854 105.236C331.789 105.117 331.688 105.02 331.567 104.96L330.233 102.4C330.25 102.276 330.226 102.149 330.166 102.039C330.106 101.929 330.013 101.841 329.9 101.787C329.9 101.527 329.94 101.267 329.56 101.253C329.606 101.092 329.619 100.924 329.598 100.758C329.578 100.592 329.524 100.431 329.44 100.287C328.213 97.8 327.08 95.26 325.727 92.84C320.234 82.9201 313.172 73.9552 304.813 66.2933C300.89 62.7064 296.717 59.4026 292.327 56.4066C285.005 51.4219 277.079 47.3895 268.74 44.4066C261.256 41.6946 253.488 39.8384 245.587 38.8733C244.247 38.7533 242.813 38.9 241.493 38.3666Z" fill="#FF0000"/>
<path d="M50.1999 230C49.5999 229.867 49.5333 229.293 49.2799 228.893C45.4385 222.472 42.597 215.503 40.8533 208.227C39.8055 203.983 39.1582 199.651 38.9199 195.287C38.7999 193.02 38.6266 190.753 38.7199 188.48C39.2259 171.898 45.1272 155.934 55.5284 143.009C65.9296 130.085 80.2629 120.907 96.3532 116.867C99.828 115.966 103.368 115.338 106.94 114.987C111.853 114.513 116.76 113.913 121.68 113.427C123.747 113.22 125.82 113.1 127.873 112.76C128.04 112.76 128.193 112.667 128.44 112.6C129.773 110.1 131.107 107.553 132.493 105.02C134.947 100.473 137.38 95.9266 139.88 91.4133C143.457 85.0518 147.723 79.1027 152.6 73.6733C167.246 57.1718 186.695 45.6753 208.213 40.8C212.751 39.7417 217.358 39.0087 222 38.6066C226.21 38.2058 230.438 38.0189 234.667 38.0466C236 38.0466 237.24 38.2733 238.527 38.3666C238.449 38.4462 238.355 38.5086 238.252 38.5499C238.149 38.5912 238.038 38.6106 237.927 38.6066C234.501 38.8357 231.095 39.3012 227.733 40C219.186 41.5546 210.871 44.1867 202.987 47.8333C192.565 52.5758 182.997 59.0043 174.667 66.86C167.436 73.6677 161.197 81.4571 156.133 90C153.867 93.8266 151.88 97.7933 149.767 101.7C149.247 102.653 148.5 103.527 148.387 104.673C147.967 104.747 148 105.053 148.033 105.34C147.56 105.46 147.6 105.813 147.653 106.173C146.52 108.173 145.133 110.02 144.32 112.173C144.219 112.218 144.134 112.291 144.073 112.383C144.013 112.475 143.981 112.583 143.98 112.693C142.767 112.931 141.536 113.063 140.3 113.087C136.56 113.487 132.827 113.94 129.08 114.3C124.667 114.727 120.253 115.113 115.893 115.967C104.02 118.272 92.8634 123.363 83.3403 130.82C73.8172 138.276 66.1995 147.886 61.1132 158.86C60.5399 160.093 59.7799 161.3 59.6399 162.7C59.2999 162.813 59.2933 163.08 59.3133 163.367L58.3133 165.26C58.192 165.337 58.0971 165.449 58.0412 165.581C57.9852 165.713 57.9708 165.859 57.9999 166C57.5199 166.06 57.4599 166.493 57.2666 166.813C53.9217 172.37 51.3131 178.338 49.5066 184.567C47.6655 190.887 46.6504 197.419 46.4866 204C46.4368 206.382 46.5102 208.765 46.7066 211.14C47.1131 216.712 48.1281 222.222 49.7333 227.573C49.9599 228.347 50.4399 229.113 50.1999 230Z" fill="#00FF00"/>
<path d="M148.387 104.667C148.5 103.52 149.247 102.667 149.767 101.693C151.88 97.7867 153.867 93.8201 156.133 89.9934C161.198 81.4529 167.437 73.6657 174.667 66.8601C182.987 58.9997 192.546 52.5646 202.96 47.8134C210.854 44.1715 219.178 41.5461 227.733 40.0001C231.087 39.3092 234.484 38.8504 237.9 38.6267C238.011 38.6306 238.122 38.6113 238.225 38.57C238.329 38.5287 238.422 38.4662 238.5 38.3867H241.493C242.827 38.9201 244.247 38.7734 245.62 38.9401C253.522 39.9051 261.289 41.7614 268.773 44.4734C277.113 47.4562 285.039 51.4886 292.36 56.4734C296.751 59.4693 300.924 62.7732 304.847 66.3601C313.205 74.0219 320.268 82.9869 325.76 92.9067C327.093 95.3267 328.247 97.8667 329.473 100.353C329.557 100.498 329.611 100.658 329.632 100.825C329.652 100.991 329.639 101.159 329.593 101.32C328.927 101.1 328.773 100.44 328.453 99.9534C324.725 94.4533 320.484 89.3192 315.787 84.6201C312.384 81.2178 308.749 78.0568 304.907 75.16C297.282 69.347 288.903 64.5969 280 61.0401C272.932 58.195 265.576 56.1294 258.06 54.8801C253.022 54.0325 247.933 53.5291 242.827 53.3734C239.62 53.2734 236.413 53.3734 233.2 53.56C229.555 53.7695 225.924 54.1678 222.32 54.7534C213.972 56.1458 205.818 58.5201 198.027 61.8267C177.795 70.389 160.745 85.0593 149.26 103.787C149.067 104.133 148.947 104.667 148.387 104.667Z" fill="#FFFF00"/>
<path d="M50.2 230C50.44 229.127 49.96 228.36 49.7333 227.593C48.1281 222.242 47.1132 216.732 46.7066 211.16C46.5095 208.779 46.4361 206.389 46.4866 204C46.6434 197.418 47.6518 190.883 49.4866 184.56C51.2932 178.331 53.9017 172.363 57.2466 166.807C57.44 166.487 57.5 166.053 57.98 165.993C58.1666 166.973 57.6533 167.82 57.3933 168.707C55.5064 175.068 54.4553 181.648 54.2666 188.28C54.0858 195.197 54.8438 202.107 56.52 208.82C60.0587 222.922 67.6102 235.695 78.26 245.593C85.3614 252.291 93.6741 257.574 102.753 261.16C109 263.657 115.551 265.311 122.233 266.08C123.72 266.253 125.26 266.08 126.707 266.6C121.747 266.6 116.767 266.847 111.827 266.553C96.0438 265.749 80.888 260.12 68.4066 250.427C62.4038 245.838 57.1345 240.362 52.78 234.187C52.6266 233.967 52.5 233.693 52.18 233.66C52.1875 233.549 52.1583 233.439 52.0969 233.346C52.0354 233.253 51.9452 233.183 51.84 233.147L50.5533 230.747C50.5533 230.44 50.6933 230.033 50.1666 229.953L50.2 230Z" fill="#00FFFF"/>
<path d="M423.714 193.653C424.967 194.787 425.634 196.32 426.447 197.727C429.551 203.157 431.681 209.089 432.74 215.253C433.593 220.047 433.782 224.935 433.3 229.78C432.927 233.511 432.222 237.201 431.194 240.807C431.154 241.027 431.138 241.25 431.147 241.473C430.854 242.033 430.56 242.593 430.274 243.153L426.554 247.427C418.987 255.827 409.133 261.835 398.2 264.713C395.113 265.513 391.968 266.07 388.794 266.38C383.174 266.9 377.554 266.587 371.934 266.613C372.007 266.529 372.101 266.465 372.205 266.427C372.31 266.388 372.423 266.377 372.534 266.393C375.278 266.297 378.005 265.908 380.667 265.233C390.778 262.946 400.094 258 407.654 250.907C413.659 245.308 418.396 238.489 421.547 230.907C423.849 225.391 425.234 219.536 425.647 213.573C426.042 208.316 425.669 203.03 424.54 197.88C424.254 196.46 423.534 195.14 423.714 193.653Z" fill="#FF00FF"/>
<path d="M50.1799 230C50.7065 230.08 50.5332 230.487 50.5665 230.793C50.4165 230.731 50.2944 230.616 50.2232 230.47C50.152 230.324 50.1366 230.157 50.1799 230Z" fill="#00FF00"/>
<path d="M51.8534 233.167C51.9586 233.203 52.0489 233.273 52.1104 233.366C52.1718 233.458 52.201 233.569 52.1934 233.68C51.8134 233.673 51.8401 233.413 51.8534 233.167Z" fill="#0000FF"/>
<path d="M422.367 191.007C421.033 190.187 420.367 188.833 419.36 187.727C410.108 177.337 397.446 170.598 383.66 168.727C382.053 168.487 380.413 168.447 378.787 168.32C374.755 168.004 370.722 167.696 366.687 167.393C365.007 167.267 363.353 167.253 361.633 167.073C359.233 166.807 356.807 166.78 354.393 166.62C353 166.527 351.613 166.36 350.147 166.22C349.74 164.347 349.327 162.527 348.953 160.693C348.36 157.833 347.793 154.96 347.22 152.093C347.199 151.872 347.199 151.648 347.22 151.427C349.067 151.52 350.933 151.48 352.753 151.753C354.82 152.06 356.9 152.013 358.967 152.22C363.047 152.627 367.153 152.76 371.253 153.027C381.374 153.564 391.178 156.738 399.693 162.233C409.812 168.714 417.62 178.231 422 189.42C422.303 189.89 422.432 190.451 422.367 191.007Z" fill="#FFFF00"/>
<path d="M346.993 151.28C345.465 151.379 343.931 151.25 342.44 150.9C342.015 149.536 341.696 148.14 341.487 146.727C339.487 137.213 337.653 127.673 335.607 118.18C334.81 114.565 333.736 111.017 332.393 107.567C332.052 106.994 331.888 106.333 331.92 105.667C332.768 106.749 333.484 107.928 334.053 109.18C338.396 117.162 341.624 125.701 343.647 134.56C344.913 140.1 346.06 145.673 346.993 151.28Z" fill="#FF00FF"/>
<path d="M331.933 105.687C331.513 105.607 331.606 105.267 331.566 105.02C331.688 105.08 331.789 105.177 331.854 105.296C331.92 105.415 331.947 105.551 331.933 105.687Z" fill="#FF00FF"/>
<path d="M422.714 191.707C422.641 191.685 422.574 191.649 422.517 191.6C422.459 191.552 422.412 191.492 422.378 191.424C422.345 191.357 422.325 191.283 422.321 191.208C422.316 191.133 422.328 191.057 422.354 190.987C422.787 191.073 422.707 191.413 422.714 191.707Z" fill="#FFFF00"/>
<path d="M423.727 193.673C423.267 193.6 423.393 193.24 423.373 192.953C423.514 193.005 423.629 193.108 423.695 193.242C423.76 193.377 423.772 193.531 423.727 193.673Z" fill="#FF00FF"/>
<path d="M330.24 102.433C330.124 102.382 330.029 102.294 329.969 102.183C329.909 102.072 329.887 101.945 329.906 101.82C330.02 101.874 330.113 101.962 330.173 102.072C330.233 102.183 330.256 102.309 330.24 102.433Z" fill="#FFFF00"/>
<path d="M329.92 101.84C329.809 101.806 329.714 101.734 329.651 101.636C329.589 101.538 329.564 101.421 329.58 101.307C329.96 101.333 329.94 101.58 329.92 101.84Z" fill="#FFFF00"/>
<path d="M144 112.667C144.056 112.997 143.982 113.336 143.793 113.613L136.147 127.88C134.067 128.353 131.927 128.367 129.813 128.633C126.867 128.993 123.909 129.304 120.94 129.567C118.647 129.78 116.358 130.002 114.073 130.233C108.621 130.843 103.255 132.059 98.0732 133.86C82.8689 139.045 69.6863 148.892 60.3999 162C60.2132 162.26 60.0665 162.587 59.6865 162.667C59.8465 161.267 60.5865 160.06 61.1599 158.827C64.1819 152.31 68.1047 146.251 72.8132 140.827C83.9924 127.928 99.1802 119.159 115.94 115.927C120.3 115.073 124.713 114.687 129.127 114.26C132.873 113.9 136.607 113.447 140.347 113.047C141.573 113.025 142.795 112.898 144 112.667Z" fill="#FFFF00"/>
<path d="M148.06 105.333C148.103 105.495 148.089 105.666 148.019 105.818C147.95 105.97 147.83 106.093 147.68 106.167C147.626 105.8 147.586 105.447 148.06 105.333Z" fill="#FFFF00"/>
<path d="M148.4 104.667C148.473 104.993 148.48 105.28 148.047 105.333C148 105.04 148 104.733 148.4 104.667Z" fill="#FFFF00"/>
<path d="M59.6735 162.667C59.7129 162.798 59.7012 162.94 59.6407 163.064C59.5801 163.187 59.4752 163.284 59.3468 163.333C59.3335 163.04 59.3335 162.773 59.6735 162.667Z" fill="#FFFF00"/>
<path d="M58.3466 165.22C58.2866 165.513 58.5066 165.94 57.9666 166.013C57.9309 165.858 57.9491 165.694 58.0181 165.55C58.0871 165.406 58.2029 165.29 58.3466 165.22Z" fill="#00FFFF"/>
<path d="M144.333 112.167C144.333 112.413 144.333 112.667 143.993 112.687C143.994 112.576 144.026 112.469 144.087 112.377C144.147 112.284 144.233 112.211 144.333 112.167Z" fill="#FFFF00"/>
<path d="M303.674 176.287C304.644 178.547 304.77 181.082 304.029 183.427C303.287 185.773 301.727 187.775 299.634 189.067C293.24 193.067 286.914 197.22 280.554 201.3C266.154 210.549 251.749 219.798 237.34 229.047C230.607 233.373 223.867 237.713 217.174 242.067C215.372 243.24 213.25 243.827 211.102 243.745C208.953 243.664 206.882 242.919 205.174 241.613C204.039 240.719 203.109 239.591 202.446 238.306C201.784 237.022 201.404 235.61 201.334 234.167C201.171 232.232 201.183 230.286 201.367 228.353C202.58 228.353 203.747 228.713 205.02 228.513C207.62 228.107 209.687 226.76 211.687 225.26C211.774 225.286 211.863 225.301 211.954 225.307C214.434 228.453 220.034 229.847 224.307 227.153C225.827 226.2 227.34 225.247 228.847 224.28C239.58 217.391 250.309 210.502 261.034 203.613C271.758 196.724 282.487 189.836 293.22 182.947C296.667 180.707 300.08 178.353 303.674 176.287Z" fill="#FFFF00"/>
<path d="M201.18 228.147C197.773 227.553 194.307 224.067 193.74 220.213C193.558 218.888 193.473 217.551 193.487 216.213C193.487 181.8 193.487 147.384 193.487 112.967C193.487 110.24 194.02 107.713 195.733 105.487C197.225 103.566 199.358 102.247 201.743 101.769C204.127 101.292 206.604 101.689 208.72 102.887C209.74 103.467 210.72 104.093 211.74 104.693C211.727 104.78 211.727 104.867 211.74 104.953C210.48 106.13 209.633 107.683 209.327 109.38C208.767 111.893 209.007 114.433 209.067 116.973C209.014 117.056 208.97 117.143 208.933 117.233C207.312 117.472 205.813 118.236 204.667 119.407C202.187 121.633 201.22 124.493 201.22 127.74C201.22 160.478 201.22 193.218 201.22 225.96C201.247 226.707 201.207 227.427 201.18 228.147Z" fill="#FF00FF"/>
<path d="M211.767 104.98C211.754 104.894 211.754 104.806 211.767 104.72C213.333 103.453 214.953 102.28 217.013 101.867C219.105 101.353 221.31 101.564 223.267 102.467C224.022 102.831 224.754 103.24 225.46 103.693C234.238 109.315 243.009 114.94 251.773 120.567C261.489 126.789 271.202 133.011 280.913 139.233C289.584 144.793 298.264 150.349 306.953 155.9C309.747 157.68 311.62 160.047 312.153 163.313C312.496 165.041 312.367 166.829 311.781 168.49C311.194 170.151 310.172 171.624 308.82 172.753C307.282 174.06 305.578 175.159 303.753 176.02C303.373 175.413 303.02 174.8 302.613 174.22C300.987 171.86 298.447 170.653 296.067 169.247C296.058 169.153 296.035 169.061 296 168.973C296.942 166.73 297.057 164.226 296.324 161.906C295.592 159.586 294.059 157.602 292 156.307C288.209 153.88 284.431 151.451 280.667 149.02L242.06 124.313C233.713 118.98 225.375 113.631 217.047 108.267C215.347 107.076 213.585 105.979 211.767 104.98Z" fill="#00FFFF"/>
<path d="M201.18 228.147C201.18 227.427 201.247 226.707 201.247 225.987C201.247 193.244 201.247 160.504 201.247 127.767C201.247 124.52 202.214 121.66 204.694 119.433C205.84 118.262 207.339 117.499 208.96 117.26C208.96 117.927 209.02 118.593 209.02 119.26C209.02 151.984 209.02 184.711 209.02 217.44C208.943 220.284 209.889 223.061 211.687 225.267C209.687 226.767 207.614 228.113 205.02 228.52C203.747 228.72 202.58 228.34 201.367 228.36C201.293 228.3 201.23 228.228 201.18 228.147Z" fill="#FF0000"/>
<path d="M296 169.267C298.38 170.673 300.92 171.88 302.546 174.24C302.953 174.82 303.306 175.433 303.686 176.04C303.706 176.123 303.694 176.211 303.653 176.287C300.06 178.353 296.66 180.707 293.18 182.953C282.446 189.842 271.718 196.731 260.993 203.62C250.269 210.509 239.54 217.398 228.806 224.287C227.3 225.253 225.786 226.207 224.266 227.16C219.993 229.827 214.393 228.46 211.913 225.313C212.167 225.018 212.477 224.778 212.826 224.607C221.578 218.98 230.329 213.347 239.08 207.707L274.986 184.667C279.973 181.467 284.913 178.187 289.953 175.06C292.42 173.533 294.666 171.847 296 169.267Z" fill="#00FF00"/>
<path d="M296 169.267C294.62 171.847 292.4 173.533 289.933 175.06C284.893 178.187 279.933 181.467 274.967 184.667L239.08 207.7C230.36 213.327 221.615 218.96 212.847 224.6C212.495 224.779 212.184 225.029 211.933 225.333C211.843 225.328 211.753 225.312 211.667 225.287C209.869 223.081 208.923 220.304 209 217.46C209.035 184.736 209.035 152.009 209 119.28C209 118.613 208.96 117.947 208.94 117.28C208.976 117.189 209.021 117.102 209.073 117.02C209.353 117.02 209.64 117.02 209.913 116.987C212.731 116.63 215.579 117.365 217.873 119.04C220.227 120.653 222.667 122.14 225.073 123.707C237.518 131.707 249.962 139.689 262.407 147.653C271.787 153.653 281.14 159.72 290.54 165.7C292.268 166.931 294.076 168.045 295.953 169.033C295.978 169.109 295.994 169.187 296 169.267Z" fill="black"/>
<path d="M295.953 168.993C294.076 168.005 292.268 166.891 290.54 165.66C281.14 159.66 271.787 153.627 262.407 147.613C249.962 139.613 237.518 131.631 225.073 123.667C222.667 122.12 220.227 120.633 217.873 119C215.579 117.325 212.731 116.59 209.913 116.947C209.64 116.987 209.353 116.947 209.073 116.98C209.013 114.44 208.773 111.9 209.333 109.387C209.64 107.69 210.486 106.137 211.747 104.96C213.56 105.96 215.318 107.057 217.013 108.247C225.351 113.58 233.689 118.929 242.027 124.293L280.667 149.02C284.44 151.433 288.207 153.86 291.967 156.3C294.03 157.598 295.564 159.588 296.294 161.913C297.025 164.239 296.904 166.749 295.953 168.993Z" fill="#0000FF"/>
</g>
<defs>
<clipPath id="clip0_318_895">
<rect width="480" height="320" fill="white"/>
</clipPath>
</defs>
</svg>
