<svg width="869" height="501" viewBox="0 0 869 501" fill="none" xmlns="http://www.w3.org/2000/svg">
<path d="M25.7974 445.332C25.8579 433.341 33.1854 426.317 43.7223 426.317C54.1987 426.317 60.3755 433.038 60.315 444.484V499.106H86.1124V439.881C86.1729 418.081 73.3348 404.879 53.9565 404.879C39.8466 404.879 30.3997 411.541 26.1607 422.501H25.0707V375.085H0V499.106H25.7974V445.332Z" fill="black"/>
<path d="M148.441 500.923C176.661 500.923 194.222 481.605 194.222 452.962C194.222 424.137 176.661 404.879 148.441 404.879C120.221 404.879 102.66 424.137 102.66 452.962C102.66 481.605 120.221 500.923 148.441 500.923ZM148.562 480.939C135.542 480.939 128.881 469.009 128.881 452.78C128.881 436.551 135.542 424.56 148.562 424.56C161.34 424.56 168.001 436.551 168.001 452.78C168.001 469.009 161.34 480.939 148.562 480.939Z" fill="black"/>
<path d="M288.389 432.615C286.087 415.477 272.28 404.879 248.784 404.879C224.985 404.879 209.301 415.901 209.361 433.826C209.301 447.754 218.082 456.777 236.249 460.41L252.357 463.62C260.472 465.255 264.166 468.222 264.287 472.885C264.166 478.396 258.171 482.332 249.148 482.332C239.943 482.332 233.827 478.396 232.252 470.826L206.879 472.158C209.301 489.962 224.44 500.923 249.087 500.923C273.189 500.923 290.448 488.63 290.508 470.281C290.448 456.837 281.667 448.783 263.621 445.089L246.786 441.698C238.126 439.821 234.917 436.854 234.977 432.372C234.917 426.801 241.215 423.168 249.208 423.168C258.171 423.168 263.5 428.073 264.771 434.068L288.389 432.615Z" fill="black"/>
<path d="M356.228 406.09H338.727V383.805H312.929V406.09H300.212V425.469H312.929V473.915C312.808 492.142 325.223 501.165 343.935 500.378C350.596 500.136 355.319 498.804 357.923 497.956L353.866 478.759C352.594 479.001 349.869 479.607 347.447 479.607C342.3 479.607 338.727 477.669 338.727 470.523V425.469H356.228V406.09Z" fill="black"/>
<path d="M388.111 500.681C395.863 500.681 402.584 494.201 402.645 486.147C402.584 478.214 395.863 471.735 388.111 471.735C380.118 471.735 373.517 478.214 373.577 486.147C373.517 494.201 380.118 500.681 388.111 500.681Z" fill="black"/>
<path d="M510.543 406.09H483.231L463.974 472.643H463.005L443.688 406.09H416.437L448.956 499.106H478.024L510.543 406.09Z" fill="black"/>
<path d="M523.744 499.106H549.542V406.09H523.744V499.106ZM536.703 394.1C544.394 394.1 550.692 388.226 550.692 381.02C550.692 373.874 544.394 368 536.703 368C529.073 368 522.775 373.874 522.775 381.02C522.775 388.226 529.073 394.1 536.703 394.1Z" fill="black"/>
<path d="M604.482 500.62C619.5 500.62 627.312 491.961 630.885 484.209H631.975V499.106H657.409V375.085H631.672V421.714H630.885C627.433 414.145 619.985 404.879 604.422 404.879C584.014 404.879 566.755 420.745 566.755 452.72C566.755 483.846 583.287 500.62 604.482 500.62ZM612.657 480.091C600.001 480.091 593.097 468.828 593.097 452.598C593.097 436.49 599.88 425.408 612.657 425.408C625.193 425.408 632.217 436.006 632.217 452.598C632.217 469.191 625.072 480.091 612.657 480.091Z" fill="black"/>
<path d="M721.009 500.923C744.021 500.923 759.524 489.72 763.157 472.461L739.298 470.887C736.694 477.972 730.032 481.666 721.433 481.666C708.535 481.666 700.359 473.127 700.359 459.26V459.199H763.702V452.114C763.702 420.503 744.566 404.879 719.98 404.879C692.608 404.879 674.865 424.318 674.865 453.022C674.865 482.514 692.366 500.923 721.009 500.923ZM700.359 443.212C700.904 432.615 708.958 424.137 720.404 424.137C731.607 424.137 739.358 432.13 739.419 443.212H700.359Z" fill="black"/>
<path d="M822.564 500.923C850.784 500.923 868.345 481.605 868.345 452.962C868.345 424.137 850.784 404.879 822.564 404.879C794.344 404.879 776.783 424.137 776.783 452.962C776.783 481.605 794.344 500.923 822.564 500.923ZM822.685 480.939C809.665 480.939 803.004 469.009 803.004 452.78C803.004 436.551 809.665 424.56 822.685 424.56C835.463 424.56 842.124 436.551 842.124 452.78C842.124 469.009 835.463 480.939 822.685 480.939Z" fill="black"/>
<g clip-path="url(#clip0_315_381)">
<path d="M430.44 0H432.44C432.527 0.333333 432.8 0.34 433.107 0.333333H435.873C437.007 0.226667 438.1 0.793333 439.247 0.54C442.867 0.993333 446.487 1.38667 450.093 1.96C456.406 2.95747 462.642 4.38524 468.76 6.23333C478.145 9.06649 487.221 12.8343 495.853 17.48C522.482 31.7776 543.926 54.1072 557.133 81.2933C557.34 81.72 557.74 82.1267 557.473 82.6733C557.053 82.6733 556.973 82.2867 556.807 82.0067C555.553 80.1667 554.327 78.3067 553.06 76.48C548.322 69.7067 542.982 63.3744 537.107 57.56C533.913 54.3533 530.533 51.3267 527.027 48.44C519.473 42.1917 511.296 36.7364 502.627 32.16C491.266 26.1615 479.16 21.6938 466.627 18.8733C458.413 17.0159 450.056 15.8606 441.647 15.42C435.958 15.1156 430.256 15.1646 424.573 15.5667C420.307 15.8733 416.062 16.3178 411.84 16.9C405.301 17.8554 398.839 19.2836 392.507 21.1733C381.694 24.354 371.287 28.7768 361.493 34.3533C346.277 43.0152 332.762 54.3709 321.607 67.8667C316.381 74.1787 311.698 80.9204 307.607 88.02C306.807 89.4067 306.027 90.8067 305.24 92.1867C300.622 92.6031 296.04 93.3449 291.527 94.4067C272.374 98.7906 254.637 107.938 239.96 121C233.111 127.097 227.014 133.99 221.8 141.533C221.133 142.467 220.753 143.6 219.747 144.28C219.547 143.613 219.92 143.1 220.18 142.56C221.473 139.893 222.847 137.227 224.333 134.593C228.776 126.794 234.126 119.548 240.273 113.007C255.633 96.6538 275.386 85.0798 297.16 79.6733C302.38 78.3699 307.687 77.4409 313.04 76.8933C313.82 75.5 314.56 74.14 315.333 72.8C324.819 56.2993 337.459 41.8265 352.533 30.2067C366.386 19.6154 382.005 11.5621 398.667 6.42C408.483 3.37348 418.607 1.426 428.853 0.613333C429.44 0.566667 430.073 0.613333 430.44 0Z" fill="#0000FF"/>
<path d="M557.46 82.6667C557.727 82.12 557.327 81.7133 557.12 81.2867C543.889 54.1168 522.452 31.7935 495.84 17.4733C487.208 12.823 478.132 9.05076 468.747 6.21333C462.629 4.36524 456.392 2.93747 450.08 1.94C446.473 1.36667 442.853 0.973333 439.233 0.52V0H446C446.05 0.0980297 446.128 0.178932 446.224 0.23237C446.32 0.285808 446.43 0.309354 446.54 0.3H450.767C456.322 0.624833 461.853 1.27259 467.333 2.24C474.896 3.53681 482.34 5.44529 489.593 7.94667C512.813 15.8615 533.622 29.5856 550.04 47.8133C562.247 61.2775 571.76 76.9557 578.067 94C580.568 100.785 582.536 107.755 583.953 114.847C585.847 115.4 587.767 115.387 589.647 115.607C594.04 116.138 598.391 116.978 602.667 118.12C614.563 121.235 625.753 126.598 635.633 133.92C646.277 141.773 655.16 151.764 661.713 163.253C666.827 172.147 670.406 181.838 672.3 191.92C672.933 195.293 673.34 198.687 673.673 202.1C674.042 206.47 674.098 210.862 673.84 215.24C673.559 220.21 672.861 225.147 671.753 230C669.743 238.979 666.428 247.616 661.913 255.633C661.644 256.288 661.234 256.875 660.713 257.353C660.65 256.803 660.759 256.246 661.027 255.76C663.838 247.829 665.528 239.545 666.047 231.147C666.447 225.22 666.279 219.268 665.547 213.373C664.967 208.877 664.094 204.423 662.933 200.04C661.402 194.374 659.319 188.872 656.713 183.613C655.6 181.34 654.553 179.013 652.92 177.027C652.955 176.882 652.938 176.729 652.871 176.596C652.804 176.463 652.691 176.358 652.553 176.3C652.113 175.453 651.68 174.607 651.22 173.767C651.22 173.453 651.273 173.1 650.86 173.007C650.913 172.503 650.772 171.998 650.467 171.593C649.327 169.247 648.24 166.887 646.973 164.6C639.512 151.029 628.845 139.489 615.9 130.987C607.679 125.536 598.67 121.381 589.187 118.667C583.764 117.053 578.194 115.979 572.56 115.46L572.307 115.287C572.311 114.959 572.247 114.635 572.12 114.333C569.514 106.424 566.238 98.7517 562.327 91.4C562.041 90.7521 561.641 90.1606 561.147 89.6533C561.187 89.3467 561.147 89.0733 560.793 88.9867C560.816 88.8444 560.792 88.6986 560.724 88.5712C560.657 88.4438 560.55 88.3416 560.42 88.28L558.42 84.4533C558.42 84.1267 558.487 83.7867 558.047 83.6333C558.047 83.4133 558.047 83.22 557.733 83.26C557.827 82.9267 557.873 82.5933 557.387 82.5933L557.46 82.6667Z" fill="#00FFFF"/>
<path d="M430.44 0C430.073 0.613333 429.44 0.566667 428.853 0.613333C418.607 1.426 408.483 3.37348 398.667 6.42C382.002 11.5743 366.383 19.6413 352.533 30.2467C337.459 41.8665 324.819 56.3393 315.333 72.84C314.56 74.1733 313.82 75.5067 313.04 76.9333C307.687 77.4809 302.38 78.4099 297.16 79.7133C275.386 85.1198 255.633 96.6938 240.273 113.047C234.127 119.586 228.776 126.829 224.333 134.627C222.847 137.233 221.473 139.893 220.18 142.593C219.92 143.133 219.513 143.653 219.747 144.313C219.427 144.26 219.4 144.453 219.42 144.687C218.927 144.793 219.06 145.18 219.047 145.5C218.167 146.833 217.713 148.38 216.733 149.66C216.62 149.8 216.693 150.087 216.68 150.327C216.013 150.433 215.907 151.053 215.647 151.52C211.501 159.035 208.235 167.003 205.913 175.267C203.649 183.187 202.296 191.34 201.88 199.567C201.467 207.365 201.865 215.184 203.067 222.9C204.089 229.279 205.605 235.569 207.6 241.713C208.16 243.447 208.987 245.093 209.333 246.893C208.969 246.636 208.688 246.276 208.527 245.86C203.187 236.388 199.253 226.19 196.847 215.587C195.846 211.106 195.118 206.569 194.667 202C194.036 196.379 193.86 190.716 194.14 185.067C194.798 171.511 197.899 158.187 203.293 145.733C207.803 135.37 213.824 125.732 221.16 117.133C236.843 98.7668 257.852 85.7337 281.273 79.84C285.774 78.6538 290.358 77.8092 294.987 77.3133C295.82 77.2333 296.647 77.06 297.567 76.9133C299.567 73.38 301.567 69.8 303.793 66.36C308.213 59.5851 313.169 53.1756 318.613 47.1933C335.738 28.5207 357.443 14.645 381.58 6.94C386.807 5.26879 392.125 3.89328 397.507 2.82C401.521 1.99416 405.575 1.37777 409.653 0.973333C412.173 0.746667 414.673 0.353333 417.213 0.34H421.267C421.56 0.34 421.827 0.34 421.973 0.02L430.44 0Z" fill="#FF00FF"/>
<path d="M439.247 0V0.52C438.1 0.773333 437.007 0.206667 435.873 0.313333C435.863 0.209126 435.863 0.104207 435.873 0L439.247 0Z" fill="#00FFFF"/>
<path d="M422 0C421.854 0.306667 421.587 0.32 421.294 0.32H417.24C417.262 0.270559 417.273 0.217234 417.273 0.163333C417.273 0.109433 417.262 0.0561072 417.24 0.00666667L422 0Z" fill="#FF00FF"/>
<path d="M450.787 0.293333H446.56C446.448 0.30748 446.334 0.286953 446.234 0.234512C446.134 0.182071 446.052 0.100232 446 0L450.74 0C450.735 0.0999585 450.751 0.199862 450.787 0.293333Z" fill="#00FFFF"/>
<path d="M435.86 -1.95317e-05C435.85 0.104187 435.85 0.209107 435.86 0.313314H433.093C432.82 0.313314 432.547 0.313314 432.427 -0.0200195L435.86 -1.95317e-05Z" fill="#0000FF"/>
<path d="M658.387 261.667C658.476 262.275 658.325 262.894 657.967 263.393C654.381 271.301 649.734 278.682 644.153 285.333C628.71 303.726 606.985 315.726 583.193 319.007C578.111 319.69 572.988 320.018 567.86 319.987C484.456 319.987 401.045 319.987 317.627 319.987C313.236 319.989 308.849 319.739 304.487 319.24C297.523 318.44 290.644 317.019 283.933 314.993C270.705 311.024 258.289 304.73 247.267 296.407C240.917 291.62 235.085 286.181 229.867 280.18C223.68 273.083 218.371 265.267 214.053 256.9C213.12 255.1 212.02 253.34 211.62 251.3C212.087 251.38 212.16 251.8 212.367 252.113C218.688 261.739 226.398 270.377 235.247 277.747C243.227 284.357 252.04 289.891 261.46 294.207C274.538 300.175 288.604 303.682 302.953 304.553C307.96 304.873 312.987 304.733 318.007 304.62C320.433 304.62 322.86 304.687 325.28 304.687H562.153C564.293 304.687 566.44 304.647 568.587 304.62C575.393 304.66 582.207 304.9 589 304.033C594.341 303.371 599.621 302.292 604.793 300.807C624.659 295.006 642.147 283 654.7 266.547C655.94 264.933 656.973 263.16 658.387 261.667Z" fill="#FFFF00"/>
<path d="M318.034 304.667C313.014 304.78 307.987 304.92 302.98 304.6C288.631 303.729 274.565 300.222 261.487 294.253C252.067 289.937 243.253 284.403 235.274 277.793C226.425 270.424 218.714 261.786 212.394 252.16C212.187 251.847 212.114 251.427 211.647 251.347C211.685 251.193 211.667 251.03 211.596 250.889C211.525 250.747 211.406 250.635 211.26 250.573L209.36 246.873C209.014 245.073 208.187 243.427 207.627 241.693C205.632 235.549 204.116 229.259 203.094 222.88C201.892 215.164 201.494 207.345 201.907 199.547C202.323 191.32 203.676 183.167 205.94 175.247C208.262 166.983 211.528 159.015 215.674 151.5C215.934 151.033 216.014 150.413 216.707 150.307C216.72 150.582 216.695 150.858 216.634 151.127C214.382 157.068 212.666 163.199 211.507 169.447C210.546 174.272 209.937 179.16 209.687 184.073C209.294 191.271 209.58 198.489 210.54 205.633C211.343 211.431 212.577 217.16 214.234 222.773C216.871 231.592 220.579 240.055 225.274 247.973C240.652 273.781 265.422 292.636 294.394 300.587C301.744 302.644 309.289 303.925 316.907 304.407C317.334 304.393 317.727 304.273 318.034 304.667Z" fill="#FF0000"/>
<path d="M658.387 261.667C656.974 263.16 655.94 264.933 654.7 266.56C642.148 283.014 624.659 295.019 604.794 300.82C599.621 302.305 594.341 303.384 589 304.047C582.207 304.913 575.394 304.673 568.587 304.633C568.834 304.32 569.194 304.393 569.52 304.387C572.996 304.186 576.454 303.741 579.867 303.053C595.8 300.113 610.738 293.212 623.304 282.984C635.87 272.756 645.66 259.531 651.774 244.527C655.455 235.499 657.652 225.936 658.28 216.207C659.221 203.567 657.537 190.87 653.334 178.913C653.114 178.307 652.727 177.707 652.9 177C654.534 179 655.567 181.313 656.694 183.587C659.305 188.841 661.395 194.338 662.934 200C664.094 204.383 664.967 208.837 665.547 213.333C666.279 219.228 666.447 225.18 666.047 231.107C665.528 239.505 663.839 247.789 661.027 255.72C660.759 256.206 660.65 256.763 660.714 257.313C660.334 257.313 660.38 257.593 660.394 257.84L658.66 261.173C658.563 261.213 658.481 261.283 658.427 261.373C658.373 261.464 658.35 261.569 658.36 261.673L658.387 261.667Z" fill="#00FF00"/>
<path d="M211.28 250.567C211.424 250.628 211.542 250.739 211.613 250.879C211.684 251.02 211.703 251.18 211.666 251.333C211.193 251.247 211.333 250.86 211.28 250.567Z" fill="#FFFF00"/>
<path d="M660.407 257.833C660.407 257.587 660.347 257.32 660.727 257.307C660.747 257.418 660.725 257.533 660.666 257.63C660.607 257.727 660.515 257.799 660.407 257.833Z" fill="#00FFFF"/>
<path d="M658.374 261.68C658.363 261.575 658.386 261.47 658.44 261.38C658.495 261.29 658.576 261.22 658.674 261.18C658.707 261.427 658.76 261.68 658.374 261.68Z" fill="#FFFF00"/>
<path d="M652.92 177C652.747 177.707 653.133 178.333 653.353 178.913C657.549 190.87 659.226 203.564 658.28 216.2C657.652 225.929 655.455 235.493 651.773 244.52C645.645 259.515 635.85 272.731 623.286 282.957C610.723 293.182 595.793 300.09 579.867 303.047C576.453 303.734 572.996 304.18 569.52 304.38C569.193 304.38 568.853 304.313 568.587 304.627C566.44 304.627 564.293 304.693 562.153 304.693H325.333C322.913 304.693 320.487 304.653 318.06 304.627C317.753 304.267 317.333 304.387 316.953 304.367C309.336 303.885 301.79 302.604 294.44 300.547C279.492 296.45 265.515 289.403 253.333 279.82C242.115 271.01 232.622 260.201 225.333 247.94C220.638 240.022 216.931 231.559 214.293 222.74C212.637 217.127 211.402 211.397 210.6 205.6C209.64 198.456 209.354 191.238 209.747 184.04C209.997 179.127 210.605 174.238 211.567 169.413C212.718 163.167 214.424 157.036 216.667 151.093C216.729 150.825 216.753 150.549 216.74 150.273C216.74 150.06 216.68 149.773 216.793 149.607C217.773 148.327 218.227 146.773 219.107 145.447C219.243 145.373 219.352 145.258 219.417 145.117C219.482 144.976 219.499 144.818 219.467 144.667C219.76 144.667 219.8 144.513 219.793 144.293C220.8 143.627 221.207 142.48 221.847 141.547C233.961 124.053 250.655 110.229 270.1 101.587C277.008 98.5066 284.2 96.1064 291.573 94.4201C296.086 93.3583 300.669 92.6164 305.287 92.2001C306.073 90.8201 306.853 89.4201 307.653 88.0334C311.745 80.9338 316.428 74.1921 321.653 67.8801C332.808 54.3842 346.323 43.0285 361.54 34.3667C371.334 28.7902 381.741 24.3674 392.553 21.1867C398.886 19.297 405.347 17.8688 411.887 16.9134C416.113 16.3134 420.358 15.8689 424.62 15.5801C430.303 15.178 436.005 15.129 441.693 15.4334C450.103 15.874 458.46 17.0293 466.673 18.8867C479.207 21.7072 491.312 26.1749 502.673 32.1734C511.343 36.7498 519.519 42.2051 527.073 48.4534C530.58 51.3401 533.96 54.3667 537.153 57.5734C543.029 63.3877 548.368 69.72 553.107 76.4934C554.373 78.3201 555.6 80.1801 556.853 82.0201C557.033 82.2734 557.113 82.6467 557.52 82.6867C557.433 83.0134 557.52 83.2667 557.867 83.3534C557.867 83.5801 557.867 83.7534 558.18 83.7267C558.136 83.8855 558.149 84.0548 558.217 84.2048C558.285 84.3548 558.405 84.4759 558.553 84.5467L560.553 88.3734C560.553 88.66 560.553 88.9734 560.927 89.08C560.927 89.3801 560.847 89.7001 561.28 89.7467C561.23 90.3024 561.356 90.8597 561.64 91.34C562.107 92.5734 562.573 93.8134 563.027 95.0534C565.377 101.552 567.24 108.218 568.6 114.993C569.852 115.321 571.148 115.451 572.44 115.38L572.693 115.553C572.73 115.883 572.788 116.211 572.867 116.533C573.793 119.54 574.66 122.567 575.333 125.64C575.68 127.193 576.06 128.74 576.42 130.307C578.573 130.567 580.627 130.84 582.687 131.067C587.426 131.609 592.11 132.559 596.687 133.907C611.634 138.123 625.351 145.864 636.687 156.48C641.642 161.16 646.074 166.364 649.907 172C650.18 172.393 650.353 172.9 650.9 173.04C650.853 173.189 650.865 173.35 650.931 173.49C650.998 173.631 651.115 173.742 651.26 173.8C651.7 174.64 652.133 175.487 652.593 176.333C652.64 176.607 652.52 177 652.96 177.06L652.92 177ZM244.18 230C244.137 230.157 244.152 230.324 244.223 230.47C244.294 230.616 244.417 230.731 244.567 230.793L245.853 233.193C245.853 233.44 245.813 233.7 246.193 233.707C246.101 234.257 246.22 234.821 246.527 235.287C247.77 238.196 249.199 241.022 250.807 243.747C255.522 251.818 261.679 258.954 268.973 264.8C274.556 269.281 280.735 272.963 287.333 275.74C297.078 279.865 307.558 281.974 318.14 281.94C400.082 281.967 482.022 281.967 563.96 281.94C567.227 281.94 570.487 281.993 573.76 281.72C578.013 281.402 582.22 280.627 586.307 279.407C596.339 276.406 605.372 270.746 612.447 263.027C616.838 258.282 620.389 252.824 622.947 246.887C623.573 245.714 624.012 244.449 624.247 243.14C624.533 242.58 624.827 242.02 625.12 241.46C625.439 241.236 625.694 240.932 625.86 240.58C627.368 238.249 628.726 235.824 629.927 233.32C633.077 226.648 634.889 219.423 635.26 212.053C635.571 206.511 634.981 200.954 633.513 195.6C630.296 183.307 623.012 172.465 612.847 164.84C602.947 157.28 591.647 153.447 579.14 152.967C577.14 152.887 575.1 152.7 573.073 152.573C569.147 152.333 565.227 151.967 561.307 151.68C559 151.513 556.693 151.427 554.393 151.26C553.513 151.2 552.647 151.013 551.727 150.88C551.68 150.507 551.667 150.213 551.613 149.967C549.613 140.173 547.613 130.373 545.567 120.593C543.363 110.164 539.484 100.161 534.08 90.9734C528.68 81.634 521.858 73.1929 513.86 65.9534C510.711 63.099 507.402 60.428 503.947 57.9534C495.503 51.918 486.217 47.1581 476.387 43.8267C468.498 41.1115 460.309 39.361 452 38.6134C446.5 38.1467 441.007 37.7134 435.493 38.3667H432.5C431.213 38.2734 429.94 38.0667 428.64 38.0467C424.411 38.019 420.183 38.2059 415.973 38.6067C411.332 39 406.725 39.7241 402.187 40.7734C380.668 45.6487 361.219 57.1452 346.573 73.6467C341.696 79.0762 337.431 85.0252 333.853 91.3867C331.353 95.9001 328.92 100.447 326.467 104.993C325.1 107.527 323.747 110.073 322.413 112.573C322.167 112.64 322.013 112.707 321.847 112.733C319.793 113.067 317.72 113.187 315.653 113.4C310.733 113.887 305.827 114.487 300.913 114.96C297.341 115.311 293.801 115.94 290.327 116.84C274.235 120.871 259.9 130.047 249.501 142.972C239.103 155.897 233.211 171.865 232.72 188.447C232.627 190.72 232.8 192.987 232.92 195.253C233.158 199.618 233.805 203.95 234.853 208.193C236.597 215.47 239.438 222.439 243.28 228.86C243.527 229.26 243.6 229.833 244.2 229.967L244.18 230Z" fill="black"/>
<path d="M650.9 173.013C650.354 172.873 650.18 172.347 649.907 171.973C646.027 166.298 641.538 161.065 636.52 156.367C625.185 145.751 611.467 138.01 596.52 133.793C591.944 132.446 587.26 131.496 582.52 130.953C580.46 130.727 578.407 130.453 576.254 130.193C575.894 128.653 575.514 127.107 575.167 125.527C574.5 122.453 573.627 119.427 572.7 116.42C572.622 116.097 572.564 115.77 572.527 115.44C578.173 115.963 583.754 117.044 589.187 118.667C598.684 121.377 607.707 125.532 615.94 130.987C628.885 139.489 639.553 151.029 647.014 164.6C648.28 166.887 649.367 169.267 650.507 171.593C650.814 171.999 650.955 172.507 650.9 173.013Z" fill="#0000FF"/>
<path d="M572.307 115.293C571.015 115.365 569.719 115.234 568.467 114.907C567.107 108.131 565.244 101.466 562.894 94.9667C562.44 93.7267 561.973 92.4867 561.507 91.2534C561.223 90.773 561.097 90.2157 561.147 89.66C561.641 90.1673 562.041 90.7588 562.327 91.4067C566.238 98.7584 569.515 106.431 572.12 114.34C572.247 114.642 572.311 114.966 572.307 115.293Z" fill="#00FF00"/>
<path d="M561.16 89.68C560.726 89.6066 560.786 89.2866 560.806 89.0133C561.167 89.1 561.2 89.3733 561.16 89.68Z" fill="#00FF00"/>
<path d="M560.826 89.0133C560.446 88.9066 560.48 88.5933 560.453 88.3066C560.583 88.3683 560.69 88.4704 560.757 88.5978C560.825 88.7252 560.849 88.871 560.826 89.0133Z" fill="#00FF00"/>
<path d="M558.466 84.48C558.318 84.4092 558.199 84.2881 558.13 84.1381C558.062 83.9881 558.049 83.8188 558.093 83.66C558.533 83.7934 558.48 84.1534 558.466 84.48Z" fill="#0000FF"/>
<path d="M651.253 173.753C651.109 173.695 650.992 173.584 650.925 173.444C650.858 173.303 650.847 173.142 650.893 172.993C651.334 173.107 651.26 173.44 651.253 173.753Z" fill="#0000FF"/>
<path d="M652.933 177.013C652.493 176.927 652.613 176.56 652.566 176.287C652.704 176.344 652.817 176.449 652.884 176.582C652.951 176.716 652.969 176.868 652.933 177.013Z" fill="#00FF00"/>
<path d="M557.8 83.3333C557.433 83.2333 557.367 82.98 557.453 82.6666C557.94 82.6666 557.893 82.9933 557.8 83.3333Z" fill="#0000FF"/>
<path d="M558.107 83.68C557.827 83.68 557.773 83.5333 557.793 83.3067C558.1 83.2667 558.12 83.46 558.107 83.68Z" fill="#0000FF"/>
<path d="M219.467 144.667C219.507 144.824 219.491 144.991 219.423 145.139C219.356 145.287 219.239 145.407 219.093 145.48C219.107 145.153 218.973 144.767 219.467 144.667Z" fill="#0000FF"/>
<path d="M219.773 144.307C219.773 144.527 219.773 144.707 219.446 144.68C219.426 144.447 219.453 144.253 219.773 144.307Z" fill="#0000FF"/>
<path d="M624.273 243.147C624.039 244.456 623.6 245.72 622.973 246.893C620.416 252.831 616.865 258.289 612.473 263.033C605.398 270.753 596.366 276.413 586.333 279.413C582.246 280.633 578.04 281.409 573.787 281.727C570.513 282 567.253 281.947 563.987 281.947C482.049 281.947 400.109 281.947 318.167 281.947C307.585 281.981 297.105 279.872 287.36 275.747C280.746 272.961 274.553 269.265 268.96 264.767C261.666 258.921 255.508 251.785 250.793 243.713C249.186 240.988 247.756 238.163 246.513 235.253C246.207 234.788 246.087 234.223 246.18 233.673C246.5 233.707 246.627 233.98 246.78 234.2C251.135 240.375 256.404 245.851 262.407 250.44C274.888 260.133 290.044 265.762 305.827 266.567C310.767 266.86 315.747 266.613 320.707 266.613C322.287 266.613 323.86 266.66 325.44 266.66H561.533C563 266.66 564.467 266.66 565.933 266.613C571.553 266.613 577.173 266.9 582.793 266.38C585.967 266.07 589.113 265.513 592.2 264.713C603.133 261.835 612.987 255.827 620.553 247.427L624.273 243.147Z" fill="#0000FF"/>
<path d="M435.493 38.3666C441.006 37.7 446.5 38.1466 452 38.6133C460.33 39.3561 468.538 41.1067 476.447 43.8266C486.274 47.1586 495.558 51.9185 504 57.9533C507.455 60.4279 510.765 63.099 513.913 65.9533C521.911 73.1928 528.733 81.634 534.133 90.9733C539.537 100.161 543.416 110.164 545.62 120.593C547.673 130.373 549.62 140.173 551.667 149.967C551.72 150.233 551.733 150.507 551.78 150.88C552.673 151.013 553.54 151.2 554.447 151.26C556.747 151.427 559.053 151.513 561.36 151.68C565.28 151.967 569.2 152.347 573.127 152.573C575.127 152.7 577.173 152.887 579.193 152.967C591.7 153.447 603 157.28 612.9 164.84C623.065 172.465 630.35 183.307 633.567 195.6C635.035 200.954 635.624 206.51 635.313 212.053C634.942 219.423 633.13 226.648 629.98 233.32C628.779 235.824 627.421 238.248 625.913 240.58C625.747 240.932 625.492 241.236 625.173 241.46C625.165 241.237 625.18 241.013 625.22 240.793C626.25 237.192 626.957 233.507 627.333 229.78C627.815 224.935 627.626 220.047 626.773 215.253C625.714 209.089 623.584 203.157 620.48 197.727C619.667 196.307 619 194.787 617.747 193.653C617.792 193.511 617.78 193.357 617.714 193.222C617.649 193.088 617.534 192.985 617.393 192.933L616.727 191.687C616.727 191.393 616.8 191.053 616.367 190.967C616.432 190.411 616.303 189.85 616 189.38C611.617 178.192 603.806 168.678 593.687 162.2C585.171 156.704 575.367 153.531 565.247 152.993C561.147 152.727 557.04 152.593 552.96 152.187C550.893 151.98 548.813 152.027 546.747 151.72C544.927 151.447 543.06 151.487 541.213 151.393C541.147 151.333 541.073 151.281 540.993 151.24C540.06 145.633 538.913 140.06 537.66 134.52C535.637 125.661 532.409 117.122 528.067 109.14C527.497 107.888 526.781 106.709 525.933 105.627C525.947 105.491 525.92 105.355 525.854 105.236C525.789 105.117 525.688 105.02 525.567 104.96L524.233 102.4C524.25 102.276 524.226 102.149 524.166 102.039C524.106 101.929 524.013 101.841 523.9 101.787C523.9 101.527 523.94 101.267 523.56 101.253C523.606 101.092 523.619 100.924 523.598 100.758C523.578 100.592 523.524 100.431 523.44 100.287C522.213 97.8 521.08 95.26 519.727 92.84C514.234 82.9201 507.172 73.9552 498.813 66.2933C494.89 62.7064 490.717 59.4026 486.327 56.4066C479.005 51.4219 471.079 47.3895 462.74 44.4066C455.256 41.6946 447.488 39.8384 439.587 38.8733C438.247 38.7533 436.813 38.9 435.493 38.3666Z" fill="#FF0000"/>
<path d="M244.2 230C243.6 229.867 243.533 229.293 243.28 228.893C239.438 222.472 236.597 215.503 234.853 208.227C233.805 203.983 233.158 199.651 232.92 195.287C232.8 193.02 232.627 190.753 232.72 188.48C233.226 171.898 239.127 155.934 249.528 143.009C259.93 130.085 274.263 120.907 290.353 116.867C293.828 115.966 297.368 115.338 300.94 114.987C305.853 114.513 310.76 113.913 315.68 113.427C317.747 113.22 319.82 113.1 321.873 112.76C322.04 112.76 322.193 112.667 322.44 112.6C323.773 110.1 325.107 107.553 326.493 105.02C328.947 100.473 331.38 95.9266 333.88 91.4133C337.457 85.0518 341.723 79.1027 346.6 73.6733C361.246 57.1718 380.695 45.6753 402.213 40.8C406.751 39.7417 411.358 39.0087 416 38.6066C420.21 38.2058 424.438 38.0189 428.667 38.0466C430 38.0466 431.24 38.2733 432.527 38.3666C432.449 38.4462 432.355 38.5086 432.252 38.5499C432.149 38.5912 432.038 38.6106 431.927 38.6066C428.501 38.8357 425.095 39.3012 421.733 40C413.186 41.5546 404.871 44.1867 396.987 47.8333C386.565 52.5758 376.997 59.0043 368.667 66.86C361.436 73.6677 355.197 81.4571 350.133 90C347.867 93.8266 345.88 97.7933 343.767 101.7C343.247 102.653 342.5 103.527 342.387 104.673C341.967 104.747 342 105.053 342.033 105.34C341.56 105.46 341.6 105.813 341.653 106.173C340.52 108.173 339.133 110.02 338.32 112.173C338.219 112.218 338.134 112.291 338.073 112.383C338.013 112.475 337.981 112.583 337.98 112.693C336.767 112.931 335.536 113.063 334.3 113.087C330.56 113.487 326.827 113.94 323.08 114.3C318.667 114.727 314.253 115.113 309.893 115.967C298.02 118.272 286.863 123.363 277.34 130.82C267.817 138.276 260.2 147.886 255.113 158.86C254.54 160.093 253.78 161.3 253.64 162.7C253.3 162.813 253.293 163.08 253.313 163.367L252.313 165.26C252.192 165.337 252.097 165.449 252.041 165.581C251.985 165.713 251.971 165.859 252 166C251.52 166.06 251.46 166.493 251.267 166.813C247.922 172.37 245.313 178.338 243.507 184.567C241.666 190.887 240.65 197.419 240.487 204C240.437 206.382 240.51 208.765 240.707 211.14C241.113 216.712 242.128 222.222 243.733 227.573C243.96 228.347 244.44 229.113 244.2 230Z" fill="#00FF00"/>
<path d="M342.387 104.667C342.5 103.52 343.247 102.667 343.767 101.693C345.88 97.7867 347.867 93.8201 350.133 89.9934C355.198 81.4529 361.437 73.6657 368.667 66.8601C376.987 58.9997 386.546 52.5646 396.96 47.8134C404.854 44.1715 413.178 41.5461 421.733 40.0001C425.087 39.3092 428.484 38.8504 431.9 38.6267C432.011 38.6306 432.122 38.6113 432.225 38.57C432.329 38.5287 432.422 38.4662 432.5 38.3867H435.493C436.827 38.9201 438.247 38.7734 439.62 38.9401C447.522 39.9051 455.289 41.7614 462.773 44.4734C471.113 47.4562 479.039 51.4886 486.36 56.4734C490.751 59.4693 494.924 62.7732 498.847 66.3601C507.205 74.0219 514.268 82.9869 519.76 92.9067C521.093 95.3267 522.247 97.8667 523.473 100.353C523.557 100.498 523.611 100.658 523.632 100.825C523.652 100.991 523.639 101.159 523.593 101.32C522.927 101.1 522.773 100.44 522.453 99.9534C518.725 94.4533 514.484 89.3192 509.787 84.6201C506.384 81.2178 502.749 78.0568 498.907 75.16C491.282 69.347 482.903 64.5969 474 61.0401C466.932 58.195 459.576 56.1294 452.06 54.8801C447.022 54.0325 441.933 53.5291 436.827 53.3734C433.62 53.2734 430.413 53.3734 427.2 53.56C423.555 53.7695 419.924 54.1678 416.32 54.7534C407.972 56.1458 399.818 58.5201 392.027 61.8267C371.795 70.389 354.745 85.0593 343.26 103.787C343.067 104.133 342.947 104.667 342.387 104.667Z" fill="#FFFF00"/>
<path d="M244.2 230C244.44 229.127 243.96 228.36 243.733 227.593C242.128 222.242 241.113 216.732 240.707 211.16C240.51 208.779 240.436 206.389 240.487 204C240.643 197.418 241.652 190.883 243.487 184.56C245.293 178.331 247.902 172.363 251.247 166.807C251.44 166.487 251.5 166.053 251.98 165.993C252.167 166.973 251.653 167.82 251.393 168.707C249.506 175.068 248.455 181.648 248.267 188.28C248.086 195.197 248.844 202.107 250.52 208.82C254.059 222.922 261.61 235.695 272.26 245.593C279.361 252.291 287.674 257.574 296.753 261.16C303 263.657 309.551 265.311 316.233 266.08C317.72 266.253 319.26 266.08 320.707 266.6C315.747 266.6 310.767 266.847 305.827 266.553C290.044 265.749 274.888 260.12 262.407 250.427C256.404 245.838 251.135 240.362 246.78 234.187C246.627 233.967 246.5 233.693 246.18 233.66C246.188 233.549 246.158 233.439 246.097 233.346C246.035 233.253 245.945 233.183 245.84 233.147L244.553 230.747C244.553 230.44 244.693 230.033 244.167 229.953L244.2 230Z" fill="#00FFFF"/>
<path d="M617.714 193.653C618.967 194.787 619.634 196.32 620.447 197.727C623.551 203.157 625.681 209.089 626.74 215.253C627.593 220.047 627.782 224.935 627.3 229.78C626.927 233.511 626.222 237.201 625.194 240.807C625.154 241.027 625.138 241.25 625.147 241.473C624.854 242.033 624.56 242.593 624.274 243.153L620.554 247.427C612.987 255.827 603.133 261.835 592.2 264.713C589.113 265.513 585.968 266.07 582.794 266.38C577.174 266.9 571.554 266.587 565.934 266.613C566.007 266.529 566.101 266.465 566.205 266.427C566.31 266.388 566.423 266.377 566.534 266.393C569.278 266.297 572.005 265.908 574.667 265.233C584.778 262.946 594.094 258 601.654 250.907C607.659 245.308 612.396 238.489 615.547 230.907C617.849 225.391 619.234 219.536 619.647 213.573C620.042 208.316 619.669 203.03 618.54 197.88C618.254 196.46 617.534 195.14 617.714 193.653Z" fill="#FF00FF"/>
<path d="M244.18 230C244.707 230.08 244.533 230.487 244.567 230.793C244.416 230.731 244.294 230.616 244.223 230.47C244.152 230.324 244.137 230.157 244.18 230Z" fill="#00FF00"/>
<path d="M245.853 233.167C245.959 233.203 246.049 233.273 246.11 233.366C246.172 233.458 246.201 233.569 246.193 233.68C245.813 233.673 245.84 233.413 245.853 233.167Z" fill="#0000FF"/>
<path d="M616.367 191.007C615.033 190.187 614.367 188.833 613.36 187.727C604.108 177.337 591.446 170.598 577.66 168.727C576.053 168.487 574.413 168.447 572.787 168.32C568.755 168.004 564.722 167.696 560.687 167.393C559.007 167.267 557.353 167.253 555.633 167.073C553.233 166.807 550.807 166.78 548.393 166.62C547 166.527 545.613 166.36 544.147 166.22C543.74 164.347 543.327 162.527 542.953 160.693C542.36 157.833 541.793 154.96 541.22 152.093C541.199 151.872 541.199 151.648 541.22 151.427C543.067 151.52 544.933 151.48 546.753 151.753C548.82 152.06 550.9 152.013 552.967 152.22C557.047 152.627 561.153 152.76 565.253 153.027C575.374 153.564 585.178 156.738 593.693 162.233C603.812 168.714 611.62 178.231 616 189.42C616.303 189.89 616.432 190.451 616.367 191.007Z" fill="#FFFF00"/>
<path d="M540.993 151.28C539.465 151.379 537.931 151.25 536.44 150.9C536.015 149.536 535.696 148.14 535.487 146.727C533.487 137.213 531.653 127.673 529.607 118.18C528.81 114.565 527.736 111.017 526.393 107.567C526.052 106.994 525.888 106.333 525.92 105.667C526.768 106.749 527.484 107.928 528.053 109.18C532.396 117.162 535.624 125.701 537.647 134.56C538.913 140.1 540.06 145.673 540.993 151.28Z" fill="#FF00FF"/>
<path d="M525.933 105.687C525.513 105.607 525.606 105.267 525.566 105.02C525.688 105.08 525.789 105.177 525.854 105.296C525.92 105.415 525.947 105.551 525.933 105.687Z" fill="#FF00FF"/>
<path d="M616.714 191.707C616.641 191.685 616.574 191.649 616.517 191.6C616.459 191.552 616.412 191.492 616.378 191.424C616.345 191.357 616.325 191.283 616.321 191.208C616.316 191.133 616.328 191.057 616.354 190.987C616.787 191.073 616.707 191.413 616.714 191.707Z" fill="#FFFF00"/>
<path d="M617.727 193.673C617.267 193.6 617.393 193.24 617.373 192.953C617.514 193.005 617.629 193.108 617.695 193.242C617.76 193.377 617.772 193.531 617.727 193.673Z" fill="#FF00FF"/>
<path d="M524.24 102.433C524.124 102.382 524.029 102.294 523.969 102.183C523.909 102.072 523.887 101.945 523.906 101.82C524.02 101.874 524.113 101.962 524.173 102.072C524.233 102.183 524.256 102.309 524.24 102.433Z" fill="#FFFF00"/>
<path d="M523.92 101.84C523.809 101.806 523.714 101.734 523.651 101.636C523.589 101.538 523.564 101.421 523.58 101.307C523.96 101.333 523.94 101.58 523.92 101.84Z" fill="#FFFF00"/>
<path d="M338 112.667C338.056 112.997 337.982 113.336 337.793 113.613L330.147 127.88C328.067 128.353 325.927 128.367 323.813 128.633C320.867 128.993 317.909 129.304 314.94 129.567C312.647 129.78 310.358 130.002 308.073 130.233C302.621 130.843 297.255 132.059 292.073 133.86C276.869 139.045 263.686 148.892 254.4 162C254.213 162.26 254.067 162.587 253.687 162.667C253.847 161.267 254.587 160.06 255.16 158.827C258.182 152.31 262.105 146.251 266.813 140.827C277.992 127.928 293.18 119.159 309.94 115.927C314.3 115.073 318.713 114.687 323.127 114.26C326.873 113.9 330.607 113.447 334.347 113.047C335.573 113.025 336.795 112.898 338 112.667Z" fill="#FFFF00"/>
<path d="M342.06 105.333C342.103 105.495 342.089 105.666 342.019 105.818C341.95 105.97 341.83 106.093 341.68 106.167C341.626 105.8 341.586 105.447 342.06 105.333Z" fill="#FFFF00"/>
<path d="M342.4 104.667C342.473 104.993 342.48 105.28 342.047 105.333C342 105.04 342 104.733 342.4 104.667Z" fill="#FFFF00"/>
<path d="M253.673 162.667C253.713 162.798 253.701 162.94 253.641 163.064C253.58 163.187 253.475 163.284 253.347 163.333C253.333 163.04 253.333 162.773 253.673 162.667Z" fill="#FFFF00"/>
<path d="M252.347 165.22C252.287 165.513 252.507 165.94 251.967 166.013C251.931 165.858 251.949 165.694 252.018 165.55C252.087 165.406 252.203 165.29 252.347 165.22Z" fill="#00FFFF"/>
<path d="M338.333 112.167C338.333 112.413 338.333 112.667 337.993 112.687C337.994 112.576 338.026 112.469 338.087 112.377C338.147 112.284 338.233 112.211 338.333 112.167Z" fill="#FFFF00"/>
<path d="M497.674 176.287C498.644 178.547 498.77 181.082 498.029 183.427C497.287 185.773 495.727 187.775 493.634 189.067C487.24 193.067 480.914 197.22 474.554 201.3C460.154 210.549 445.749 219.798 431.34 229.047C424.607 233.373 417.867 237.713 411.174 242.067C409.372 243.24 407.25 243.827 405.102 243.745C402.953 243.664 400.882 242.919 399.174 241.613C398.039 240.719 397.109 239.591 396.446 238.306C395.784 237.022 395.404 235.61 395.334 234.167C395.171 232.232 395.183 230.286 395.367 228.353C396.58 228.353 397.747 228.713 399.02 228.513C401.62 228.107 403.687 226.76 405.687 225.26C405.774 225.286 405.863 225.301 405.954 225.307C408.434 228.453 414.034 229.847 418.307 227.153C419.827 226.2 421.34 225.247 422.847 224.28C433.58 217.391 444.309 210.502 455.034 203.613C465.758 196.724 476.487 189.836 487.22 182.947C490.667 180.707 494.08 178.353 497.674 176.287Z" fill="#FFFF00"/>
<path d="M395.18 228.147C391.773 227.553 388.307 224.067 387.74 220.213C387.558 218.888 387.473 217.551 387.487 216.213C387.487 181.8 387.487 147.384 387.487 112.967C387.487 110.24 388.02 107.713 389.733 105.487C391.225 103.566 393.358 102.247 395.743 101.769C398.127 101.292 400.604 101.689 402.72 102.887C403.74 103.467 404.72 104.093 405.74 104.693C405.727 104.78 405.727 104.867 405.74 104.953C404.48 106.13 403.633 107.683 403.327 109.38C402.767 111.893 403.007 114.433 403.067 116.973C403.014 117.056 402.97 117.143 402.933 117.233C401.312 117.472 399.813 118.236 398.667 119.407C396.187 121.633 395.22 124.493 395.22 127.74C395.22 160.478 395.22 193.218 395.22 225.96C395.247 226.707 395.207 227.427 395.18 228.147Z" fill="#FF00FF"/>
<path d="M405.767 104.98C405.754 104.894 405.754 104.806 405.767 104.72C407.333 103.453 408.953 102.28 411.013 101.867C413.105 101.353 415.31 101.564 417.267 102.467C418.022 102.831 418.754 103.24 419.46 103.693C428.238 109.315 437.009 114.94 445.773 120.567C455.489 126.789 465.202 133.011 474.913 139.233C483.584 144.793 492.264 150.349 500.953 155.9C503.747 157.68 505.62 160.047 506.153 163.313C506.496 165.041 506.367 166.829 505.781 168.49C505.194 170.151 504.172 171.624 502.82 172.753C501.282 174.06 499.578 175.159 497.753 176.02C497.373 175.413 497.02 174.8 496.613 174.22C494.987 171.86 492.447 170.653 490.067 169.247C490.058 169.153 490.035 169.061 490 168.973C490.942 166.73 491.057 164.226 490.324 161.906C489.592 159.586 488.059 157.602 486 156.307C482.209 153.88 478.431 151.451 474.667 149.02L436.06 124.313C427.713 118.98 419.375 113.631 411.047 108.267C409.347 107.076 407.585 105.979 405.767 104.98Z" fill="#00FFFF"/>
<path d="M395.18 228.147C395.18 227.427 395.247 226.707 395.247 225.987C395.247 193.244 395.247 160.504 395.247 127.767C395.247 124.52 396.214 121.66 398.694 119.433C399.84 118.262 401.339 117.499 402.96 117.26C402.96 117.927 403.02 118.593 403.02 119.26C403.02 151.984 403.02 184.711 403.02 217.44C402.943 220.284 403.889 223.061 405.687 225.267C403.687 226.767 401.614 228.113 399.02 228.52C397.747 228.72 396.58 228.34 395.367 228.36C395.293 228.3 395.23 228.228 395.18 228.147Z" fill="#FF0000"/>
<path d="M490 169.267C492.38 170.673 494.92 171.88 496.546 174.24C496.953 174.82 497.306 175.433 497.686 176.04C497.706 176.123 497.694 176.211 497.653 176.287C494.06 178.353 490.66 180.707 487.18 182.953C476.446 189.842 465.718 196.731 454.993 203.62C444.269 210.509 433.54 217.398 422.806 224.287C421.3 225.253 419.786 226.207 418.266 227.16C413.993 229.827 408.393 228.46 405.913 225.313C406.167 225.018 406.477 224.778 406.826 224.607C415.578 218.98 424.329 213.347 433.08 207.707L468.986 184.667C473.973 181.467 478.913 178.187 483.953 175.06C486.42 173.533 488.666 171.847 490 169.267Z" fill="#00FF00"/>
<path d="M490 169.267C488.62 171.847 486.4 173.533 483.933 175.06C478.893 178.187 473.933 181.467 468.967 184.667L433.08 207.7C424.36 213.327 415.615 218.96 406.847 224.6C406.495 224.779 406.184 225.029 405.933 225.333C405.843 225.328 405.753 225.312 405.667 225.287C403.869 223.081 402.923 220.304 403 217.46C403.035 184.736 403.035 152.009 403 119.28C403 118.613 402.96 117.947 402.94 117.28C402.976 117.189 403.021 117.102 403.073 117.02C403.353 117.02 403.64 117.02 403.913 116.987C406.731 116.63 409.579 117.365 411.873 119.04C414.227 120.653 416.667 122.14 419.073 123.707C431.518 131.707 443.962 139.689 456.407 147.653C465.787 153.653 475.14 159.72 484.54 165.7C486.268 166.931 488.076 168.045 489.953 169.033C489.978 169.109 489.994 169.187 490 169.267Z" fill="black"/>
<path d="M489.953 168.993C488.076 168.005 486.268 166.891 484.54 165.66C475.14 159.66 465.787 153.627 456.407 147.613C443.962 139.613 431.518 131.631 419.073 123.667C416.667 122.12 414.227 120.633 411.873 119C409.579 117.325 406.731 116.59 403.913 116.947C403.64 116.987 403.353 116.947 403.073 116.98C403.013 114.44 402.773 111.9 403.333 109.387C403.64 107.69 404.486 106.137 405.747 104.96C407.56 105.96 409.318 107.057 411.013 108.247C419.351 113.58 427.689 118.929 436.027 124.293L474.667 149.02C478.44 151.433 482.207 153.86 485.967 156.3C488.03 157.598 489.564 159.588 490.294 161.913C491.025 164.239 490.904 166.749 489.953 168.993Z" fill="#0000FF"/>
</g>
<defs>
<clipPath id="clip0_315_381">
<rect width="480" height="320" fill="white" transform="translate(194)"/>
</clipPath>
</defs>
</svg>
